<?xml version="1.0" encoding="UTF-8" standalone="no"?>
<svg
   xmlns:dc="http://purl.org/dc/elements/1.1/"
   xmlns:cc="http://creativecommons.org/ns#"
   xmlns:rdf="http://www.w3.org/1999/02/22-rdf-syntax-ns#"
   xmlns:svg="http://www.w3.org/2000/svg"
   xmlns="http://www.w3.org/2000/svg"
   xmlns:sodipodi="http://sodipodi.sourceforge.net/DTD/sodipodi-0.dtd"
   xmlns:inkscape="http://www.inkscape.org/namespaces/inkscape"
   viewBox="0 0 504.00 504.00"
   version="1.1"
   id="svg128"
   sodipodi:docname="entropyPlot.svg"
   inkscape:export-filename="C:\Users\pelzm\Desktop\Math Research\Boolean research projects\entropyPlot5.png"
   inkscape:export-xdpi="300"
   inkscape:export-ydpi="300"
   inkscape:version="0.92.3 (2405546, 2018-03-11)">
  <metadata
     id="metadata132">
    <rdf:RDF>
      <cc:Work
         rdf:about="">
        <dc:format>image/svg+xml</dc:format>
        <dc:type
           rdf:resource="http://purl.org/dc/dcmitype/StillImage" />
      </cc:Work>
    </rdf:RDF>
  </metadata>
  <sodipodi:namedview
     pagecolor="#ffffff"
     bordercolor="#666666"
     borderopacity="1"
     objecttolerance="10"
     gridtolerance="10"
     guidetolerance="10"
     inkscape:pageopacity="0"
     inkscape:pageshadow="2"
     inkscape:window-width="1366"
     inkscape:window-height="705"
     id="namedview130"
     showgrid="false"
     inkscape:zoom="0.46825397"
     inkscape:cx="252"
     inkscape:cy="252"
     inkscape:window-x="-4"
     inkscape:window-y="-4"
     inkscape:window-maximized="1"
     inkscape:current-layer="svg128" />
  <defs
     id="defs4">
    <style
       type="text/css"
       id="style2"><![CDATA[
    line, polyline, path, rect, circle {
      fill: none;
      stroke: #000000;
      stroke-linecap: round;
      stroke-linejoin: round;
      stroke-miterlimit: 10.00;
    }
  ]]></style>
    <clipPath
       id="cpMC4wMHw1MDQuMDB8NTA0LjAwfDAuMDA=">
      <rect
         x="0"
         y="0"
         width="504"
         height="504"
         id="rect57" />
    </clipPath>
    <clipPath
       id="clipEmfPath1"
       clipPathUnits="userSpaceOnUse">
      <path
         id="path146"
         d="  M -213.91842,-478.15646   L 290.07785,-478.15646   L 290.07785,25.839809   L -213.91842,25.839809   z" />
    </clipPath>
    <pattern
       y="0"
       x="0"
       height="6"
       width="6"
       patternUnits="userSpaceOnUse"
       id="EMFhbasepattern" />
  </defs>
  <rect
     width="100%"
     height="100%"
     style="stroke: none; fill: #FFFFFF;"
     id="rect6" />
  <rect
     x="0.00"
     y="0.00"
     width="504.00"
     height="504.00"
     style="stroke-width: 1.07; stroke: #FFFFFF; fill: #FFFFFF;"
     id="rect8" />
  <defs
     id="defs13">
    <clipPath
       id="cpNDEuMDczNXw0OTguNTIxfDQ3MS40NzR8NS40Nzk0NQ==">
      <rect
         x="41.07"
         y="5.48"
         width="457.45"
         height="465.99"
         id="rect10" />
    </clipPath>
  </defs>
  <rect
     x="41.07"
     y="5.48"
     width="457.45"
     height="465.99"
     style="stroke-width: 1.07; stroke: none; fill: #EBEBEB;"
     clip-path="url(#cpNDEuMDczNXw0OTguNTIxfDQ3MS40NzR8NS40Nzk0NQ==)"
     id="rect15" />
  <polyline
     points="41.07,397.34 498.52,397.34 "
     style="stroke-width: 0.53; stroke: #FFFFFF; stroke-linecap: butt;"
     clip-path="url(#cpNDEuMDczNXw0OTguNTIxfDQ3MS40NzR8NS40Nzk0NQ==)"
     id="polyline17" />
  <polyline
     points="41.07,291.43 498.52,291.43 "
     style="stroke-width: 0.53; stroke: #FFFFFF; stroke-linecap: butt;"
     clip-path="url(#cpNDEuMDczNXw0OTguNTIxfDQ3MS40NzR8NS40Nzk0NQ==)"
     id="polyline19" />
  <polyline
     points="41.07,185.52 498.52,185.52 "
     style="stroke-width: 0.53; stroke: #FFFFFF; stroke-linecap: butt;"
     clip-path="url(#cpNDEuMDczNXw0OTguNTIxfDQ3MS40NzR8NS40Nzk0NQ==)"
     id="polyline21" />
  <polyline
     points="41.07,79.61 498.52,79.61 "
     style="stroke-width: 0.53; stroke: #FFFFFF; stroke-linecap: butt;"
     clip-path="url(#cpNDEuMDczNXw0OTguNTIxfDQ3MS40NzR8NS40Nzk0NQ==)"
     id="polyline23" />
  <polyline
     points="113.85,471.47 113.85,5.48 "
     style="stroke-width: 0.53; stroke: #FFFFFF; stroke-linecap: butt;"
     clip-path="url(#cpNDEuMDczNXw0OTguNTIxfDQ3MS40NzR8NS40Nzk0NQ==)"
     id="polyline25" />
  <polyline
     points="217.81,471.47 217.81,5.48 "
     style="stroke-width: 0.53; stroke: #FFFFFF; stroke-linecap: butt;"
     clip-path="url(#cpNDEuMDczNXw0OTguNTIxfDQ3MS40NzR8NS40Nzk0NQ==)"
     id="polyline27" />
  <polyline
     points="321.78,471.47 321.78,5.48 "
     style="stroke-width: 0.53; stroke: #FFFFFF; stroke-linecap: butt;"
     clip-path="url(#cpNDEuMDczNXw0OTguNTIxfDQ3MS40NzR8NS40Nzk0NQ==)"
     id="polyline29" />
  <polyline
     points="425.74,471.47 425.74,5.48 "
     style="stroke-width: 0.53; stroke: #FFFFFF; stroke-linecap: butt;"
     clip-path="url(#cpNDEuMDczNXw0OTguNTIxfDQ3MS40NzR8NS40Nzk0NQ==)"
     id="polyline31" />
  <polyline
     points="41.07,450.29 498.52,450.29 "
     style="stroke-width: 1.07; stroke: #FFFFFF; stroke-linecap: butt;"
     clip-path="url(#cpNDEuMDczNXw0OTguNTIxfDQ3MS40NzR8NS40Nzk0NQ==)"
     id="polyline33" />
  <polyline
     points="41.07,344.38 498.52,344.38 "
     style="stroke-width: 1.07; stroke: #FFFFFF; stroke-linecap: butt;"
     clip-path="url(#cpNDEuMDczNXw0OTguNTIxfDQ3MS40NzR8NS40Nzk0NQ==)"
     id="polyline35" />
  <polyline
     points="41.07,238.48 498.52,238.48 "
     style="stroke-width: 1.07; stroke: #FFFFFF; stroke-linecap: butt;"
     clip-path="url(#cpNDEuMDczNXw0OTguNTIxfDQ3MS40NzR8NS40Nzk0NQ==)"
     id="polyline37" />
  <polyline
     points="41.07,132.57 498.52,132.57 "
     style="stroke-width: 1.07; stroke: #FFFFFF; stroke-linecap: butt;"
     clip-path="url(#cpNDEuMDczNXw0OTguNTIxfDQ3MS40NzR8NS40Nzk0NQ==)"
     id="polyline39" />
  <polyline
     points="41.07,26.66 498.52,26.66 "
     style="stroke-width: 1.07; stroke: #FFFFFF; stroke-linecap: butt;"
     clip-path="url(#cpNDEuMDczNXw0OTguNTIxfDQ3MS40NzR8NS40Nzk0NQ==)"
     id="polyline41" />
  <polyline
     points="61.87,471.47 61.87,5.48 "
     style="stroke-width: 1.07; stroke: #FFFFFF; stroke-linecap: butt;"
     clip-path="url(#cpNDEuMDczNXw0OTguNTIxfDQ3MS40NzR8NS40Nzk0NQ==)"
     id="polyline43" />
  <polyline
     points="165.83,471.47 165.83,5.48 "
     style="stroke-width: 1.07; stroke: #FFFFFF; stroke-linecap: butt;"
     clip-path="url(#cpNDEuMDczNXw0OTguNTIxfDQ3MS40NzR8NS40Nzk0NQ==)"
     id="polyline45" />
  <polyline
     points="269.80,471.47 269.80,5.48 "
     style="stroke-width: 1.07; stroke: #FFFFFF; stroke-linecap: butt;"
     clip-path="url(#cpNDEuMDczNXw0OTguNTIxfDQ3MS40NzR8NS40Nzk0NQ==)"
     id="polyline47" />
  <polyline
     points="373.76,471.47 373.76,5.48 "
     style="stroke-width: 1.07; stroke: #FFFFFF; stroke-linecap: butt;"
     clip-path="url(#cpNDEuMDczNXw0OTguNTIxfDQ3MS40NzR8NS40Nzk0NQ==)"
     id="polyline49" />
  <polyline
     points="477.73,471.47 477.73,5.48 "
     style="stroke-width: 1.07; stroke: #FFFFFF; stroke-linecap: butt;"
     clip-path="url(#cpNDEuMDczNXw0OTguNTIxfDQ3MS40NzR8NS40Nzk0NQ==)"
     id="polyline51" />
  <polyline
     points="61.87,26.66 66.03,28.44 70.18,30.21 74.34,32.00 78.50,33.75 82.66,35.44 86.82,37.46 90.98,39.15 95.14,40.90 99.29,42.75 103.45,44.37 107.61,46.16 111.77,48.06 115.93,49.88 120.09,51.82 124.25,53.90 128.40,56.23 132.56,58.26 136.72,60.90 140.88,63.22 145.04,65.89 149.20,68.55 153.36,71.44 157.51,74.69 161.67,77.78 165.83,80.90 169.99,83.07 174.15,84.97 178.31,87.31 182.47,88.93 186.62,90.19 190.78,91.31 194.94,92.04 199.10,92.70 203.26,93.46 207.42,93.96 211.58,94.62 215.74,95.53 219.89,96.80 224.05,98.46 228.21,100.62 232.37,103.98 236.53,107.59 240.69,113.05 244.85,118.01 249.00,123.10 253.16,128.89 257.32,135.26 261.48,141.92 265.64,149.46 269.80,155.50 273.96,161.69 278.11,168.01 282.27,174.15 286.43,180.66 290.59,187.35 294.75,193.52 298.91,199.03 303.07,205.47 307.22,211.84 311.38,216.07 315.54,220.26 319.70,224.58 323.86,227.55 328.02,229.32 332.18,230.08 336.33,230.25 340.49,230.25 344.65,230.25 348.81,230.35 352.97,230.80 357.13,232.40 361.29,234.60 365.45,237.89 369.60,241.64 373.76,245.53 377.92,251.53 382.08,257.63 386.24,263.60 390.40,269.44 394.56,275.59 398.71,281.39 402.87,287.29 407.03,292.12 411.19,297.89 415.35,304.17 419.51,310.65 423.67,318.36 427.82,327.37 431.98,335.71 436.14,343.05 440.30,351.07 444.46,359.39 448.62,368.42 452.78,376.15 456.93,385.42 461.09,397.31 465.25,409.16 469.41,420.88 473.57,434.65 477.73,450.29 "
     style="stroke-width: 1.07; stroke-linecap: butt;"
     clip-path="url(#cpNDEuMDczNXw0OTguNTIxfDQ3MS40NzR8NS40Nzk0NQ==)"
     id="polyline53" />
  <defs
     id="defs58">
    <clipPath
       id="cpMHw1MDR8NTA0fDA=">
      <rect
         x="0.00"
         y="0.00"
         width="504.00"
         height="504.00"
         id="rect55" />
    </clipPath>
  </defs>
  <g
     clip-path="url(#cpMHw1MDR8NTA0fDA=)"
     id="g62">
    <text
       x="18.63"
       y="453.51"
       style="font-size: 8.80px; fill: #4D4D4D; font-family: Arial;"
       textLength="17.52px"
       lengthAdjust="spacingAndGlyphs"
       id="text60">0.00</text>
  </g>
  <g
     clip-path="url(#cpMHw1MDR8NTA0fDA=)"
     id="g66">
    <text
       x="18.63"
       y="347.60"
       style="font-size: 8.80px; fill: #4D4D4D; font-family: Arial;"
       textLength="17.52px"
       lengthAdjust="spacingAndGlyphs"
       id="text64">0.25</text>
  </g>
  <g
     clip-path="url(#cpMHw1MDR8NTA0fDA=)"
     id="g70">
    <text
       x="18.63"
       y="241.70"
       style="font-size: 8.80px; fill: #4D4D4D; font-family: Arial;"
       textLength="17.52px"
       lengthAdjust="spacingAndGlyphs"
       id="text68">0.50</text>
  </g>
  <g
     clip-path="url(#cpMHw1MDR8NTA0fDA=)"
     id="g74">
    <text
       x="18.63"
       y="135.79"
       style="font-size: 8.80px; fill: #4D4D4D; font-family: Arial;"
       textLength="17.52px"
       lengthAdjust="spacingAndGlyphs"
       id="text72">0.75</text>
  </g>
  <g
     clip-path="url(#cpMHw1MDR8NTA0fDA=)"
     id="g78">
    <text
       x="18.63"
       y="29.88"
       style="font-size: 8.80px; fill: #4D4D4D; font-family: Arial;"
       textLength="17.52px"
       lengthAdjust="spacingAndGlyphs"
       id="text76">1.00</text>
  </g>
  <polyline
     points="38.33,450.29 41.07,450.29 "
     style="stroke-width: 1.07; stroke: #333333; stroke-linecap: butt;"
     clip-path="url(#cpMHw1MDR8NTA0fDA=)"
     id="polyline80" />
  <polyline
     points="38.33,344.38 41.07,344.38 "
     style="stroke-width: 1.07; stroke: #333333; stroke-linecap: butt;"
     clip-path="url(#cpMHw1MDR8NTA0fDA=)"
     id="polyline82" />
  <polyline
     points="38.33,238.48 41.07,238.48 "
     style="stroke-width: 1.07; stroke: #333333; stroke-linecap: butt;"
     clip-path="url(#cpMHw1MDR8NTA0fDA=)"
     id="polyline84" />
  <polyline
     points="38.33,132.57 41.07,132.57 "
     style="stroke-width: 1.07; stroke: #333333; stroke-linecap: butt;"
     clip-path="url(#cpMHw1MDR8NTA0fDA=)"
     id="polyline86" />
  <polyline
     points="38.33,26.66 41.07,26.66 "
     style="stroke-width: 1.07; stroke: #333333; stroke-linecap: butt;"
     clip-path="url(#cpMHw1MDR8NTA0fDA=)"
     id="polyline88" />
  <polyline
     points="61.87,474.21 61.87,471.47 "
     style="stroke-width: 1.07; stroke: #333333; stroke-linecap: butt;"
     clip-path="url(#cpMHw1MDR8NTA0fDA=)"
     id="polyline90" />
  <polyline
     points="165.83,474.21 165.83,471.47 "
     style="stroke-width: 1.07; stroke: #333333; stroke-linecap: butt;"
     clip-path="url(#cpMHw1MDR8NTA0fDA=)"
     id="polyline92" />
  <polyline
     points="269.80,474.21 269.80,471.47 "
     style="stroke-width: 1.07; stroke: #333333; stroke-linecap: butt;"
     clip-path="url(#cpMHw1MDR8NTA0fDA=)"
     id="polyline94" />
  <polyline
     points="373.76,474.21 373.76,471.47 "
     style="stroke-width: 1.07; stroke: #333333; stroke-linecap: butt;"
     clip-path="url(#cpMHw1MDR8NTA0fDA=)"
     id="polyline96" />
  <polyline
     points="477.73,474.21 477.73,471.47 "
     style="stroke-width: 1.07; stroke: #333333; stroke-linecap: butt;"
     clip-path="url(#cpMHw1MDR8NTA0fDA=)"
     id="polyline98" />
  <g
     clip-path="url(#cpMHw1MDR8NTA0fDA=)"
     id="g102">
    <text
       x="59.36"
       y="482.84"
       style="font-size: 8.80px; fill: #4D4D4D; font-family: Arial;"
       textLength="5.01px"
       lengthAdjust="spacingAndGlyphs"
       id="text100">0</text>
  </g>
  <g
     clip-path="url(#cpMHw1MDR8NTA0fDA=)"
     id="g106">
    <text
       x="160.83"
       y="482.84"
       style="font-size: 8.80px; fill: #4D4D4D; font-family: Arial;"
       textLength="10.01px"
       lengthAdjust="spacingAndGlyphs"
       id="text104">25</text>
  </g>
  <g
     clip-path="url(#cpMHw1MDR8NTA0fDA=)"
     id="g110">
    <text
       x="264.79"
       y="482.84"
       style="font-size: 8.80px; fill: #4D4D4D; font-family: Arial;"
       textLength="10.01px"
       lengthAdjust="spacingAndGlyphs"
       id="text108">50</text>
  </g>
  <g
     clip-path="url(#cpMHw1MDR8NTA0fDA=)"
     id="g114">
    <text
       x="368.76"
       y="482.84"
       style="font-size: 8.80px; fill: #4D4D4D; font-family: Arial;"
       textLength="10.01px"
       lengthAdjust="spacingAndGlyphs"
       id="text112">75</text>
  </g>
  <g
     clip-path="url(#cpMHw1MDR8NTA0fDA=)"
     id="g118">
    <text
       x="470.22"
       y="482.84"
       style="font-size: 8.80px; fill: #4D4D4D; font-family: Arial;"
       textLength="15.02px"
       lengthAdjust="spacingAndGlyphs"
       id="text116">100</text>
  </g>
  <g
     clip-path="url(#cpMC4wMHw1MDQuMDB8NTA0LjAwfDAuMDA=)"
     id="g128"
     transform="translate(-6,-2)">
    <text
       transform="rotate(-90,209.955,188.725)"
       style="font-size:22px;font-family:Arial"
       textLength="339.94"
       lengthAdjust="spacingAndGlyphs"
       id="text126">Ratio of Entropy of Parent Network</text>
  </g>
  <path
     id="path152"
     d="M 0,15.759883 V 0 h 2.159984 l 8.239939,12.399908 V 0 h 1.999985 V 15.759883 H 10.239924 L 1.9999852,3.3599751 V 15.759883 Z"
     clip-path="url(#clipEmfPath1)"
     style="fill:#000000;fill-opacity:1;fill-rule:nonzero;stroke:none;stroke-linecap:round;stroke-linejoin:round;stroke-miterlimit:10"
     inkscape:connector-curvature="0"
     transform="translate(189.08044,484.21)" />
  <path
     id="path154"
     d="m 14.959889,10.079925 c 0,-2.1599837 0.559996,-3.6799724 1.759987,-4.7199647 0.959993,-0.8799935 2.159984,-1.2799905 3.599973,-1.2799905 1.519989,0 2.79998,0.4799964 3.839972,1.5199887 0.959993,1.0399923 1.439989,2.4799816 1.439989,4.319968 0,1.4399895 -0.159998,2.5599815 -0.639995,3.4399745 -0.399997,0.799994 -1.039992,1.519989 -1.919986,1.919986 -0.799994,0.479996 -1.759987,0.719994 -2.71998,0.719994 -1.599988,0 -2.879978,-0.479996 -3.91997,-1.519988 -0.959993,-1.039993 -1.43999,-2.479982 -1.43999,-4.399968 z m 1.999985,0 c 0,1.43999 0.319998,2.559981 0.959993,3.279976 0.639996,0.719995 1.43999,1.039992 2.399982,1.039992 0.959993,0 1.759987,-0.319997 2.399983,-1.039992 0.639995,-0.799994 0.959993,-1.919986 0.959993,-3.3599751 0,-1.4399893 -0.399997,-2.4799816 -1.039993,-3.1999763 -0.639995,-0.7199946 -1.35999,-1.1199917 -2.319983,-1.1199917 -0.959992,0 -1.759986,0.3999971 -2.399982,1.1199917 -0.639995,0.7199947 -0.959993,1.759987 -0.959993,3.2799754 z"
     clip-path="url(#clipEmfPath1)"
     style="fill:#000000;fill-opacity:1;fill-rule:nonzero;stroke:none;stroke-linecap:round;stroke-linejoin:round;stroke-miterlimit:10"
     inkscape:connector-curvature="0"
     transform="translate(189.08044,484.21)" />
  <path
     id="path156"
     d="m 35.279739,15.759883 v -1.439989 c -0.719995,1.119992 -1.759987,1.679987 -3.199977,1.679987 -0.879993,0 -1.679987,-0.239998 -2.479981,-0.719994 -0.719995,-0.559996 -1.35999,-1.199991 -1.759987,-2.159984 -0.399997,-0.879994 -0.639995,-1.919986 -0.639995,-3.039978 0,-1.1999908 0.159998,-2.1599837 0.559995,-3.1199766 0.399997,-0.9599928 0.959993,-1.6799875 1.759987,-2.159984 0.719995,-0.4799964 1.599988,-0.7199946 2.479982,-0.7199946 0.719995,0 1.35999,0.1599988 1.839986,0.4799964 0.559996,0.2399982 0.959993,0.6399953 1.35999,1.1199917 V 0 h 1.919986 v 15.759883 z m -6.079955,-5.679958 c 0,1.43999 0.319997,2.559981 0.879993,3.279976 0.639995,0.719995 1.35999,1.039992 2.239984,1.039992 0.799994,0 1.519988,-0.319997 2.159984,-1.039992 0.559995,-0.639995 0.879993,-1.759987 0.879993,-3.119977 0,-1.599988 -0.319998,-2.7199797 -0.959993,-3.4399744 -0.559996,-0.7199946 -1.27999,-1.1199917 -2.159984,-1.1199917 -0.879993,0 -1.599988,0.3199977 -2.159984,1.0399923 -0.639995,0.7199947 -0.879993,1.8399864 -0.879993,3.3599748 z"
     clip-path="url(#clipEmfPath1)"
     style="fill:#000000;fill-opacity:1;fill-rule:nonzero;stroke:none;stroke-linecap:round;stroke-linejoin:round;stroke-miterlimit:10"
     inkscape:connector-curvature="0"
     transform="translate(189.08044,484.21)" />
  <path
     id="path158"
     d="m 47.919645,12.079911 1.999985,0.239998 c -0.319997,1.199991 -0.879993,2.079984 -1.759987,2.71998 -0.799994,0.639995 -1.919986,0.959992 -3.199976,0.959992 -1.679988,0 -3.039978,-0.479996 -3.99997,-1.519988 -0.959993,-1.039993 -1.43999,-2.479982 -1.43999,-4.319968 0,-1.919986 0.479997,-3.4399748 1.43999,-4.4799671 1.039992,-1.0399923 2.319982,-1.5999881 3.839971,-1.5999881 1.519989,0 2.799979,0.5599958 3.759972,1.5199887 0.959993,1.0399923 1.43999,2.5599811 1.43999,4.3999674 0,0.1599991 0,0.3199981 0,0.5599961 h -8.479938 c 0.08,1.199991 0.399997,2.159984 1.039993,2.879978 0.639995,0.639996 1.439989,0.959993 2.399982,0.959993 0.719995,0 1.27999,-0.159998 1.759987,-0.559996 0.559996,-0.319997 0.959993,-0.959992 1.199991,-1.759986 z M 41.599692,8.9599336 h 6.399952 C 47.919645,7.9999407 47.599647,7.2799461 47.19965,6.7999496 46.639655,6.079955 45.83966,5.6799579 44.879668,5.6799579 c -0.959993,0 -1.679988,0.3199977 -2.239984,0.8799935 -0.639995,0.5599959 -0.959993,1.3599899 -1.039992,2.3999822 z"
     clip-path="url(#clipEmfPath1)"
     style="fill:#000000;fill-opacity:1;fill-rule:nonzero;stroke:none;stroke-linecap:round;stroke-linejoin:round;stroke-miterlimit:10"
     inkscape:connector-curvature="0"
     transform="translate(189.08044,484.21)" />
  <path
     id="path160"
     d="M 58.719565,15.759883 V 0 h 7.039948 c 1.35999,0 2.479982,0.15999881 3.199976,0.39999704 0.719995,0.31999763 1.279991,0.79999406 1.759987,1.51998876 0.399997,0.7199946 0.639995,1.5199887 0.639995,2.3999822 0,1.1199917 -0.399997,1.9999852 -1.119991,2.7999793 -0.719995,0.799994 -1.839987,1.2799905 -3.359975,1.4399893 0.559995,0.3199976 0.959992,0.5599958 1.27999,0.7999941 0.639995,0.5599958 1.199991,1.2799903 1.759987,2.0799843 l 2.71998,4.319968 H 69.999481 L 67.919497,12.479908 C 67.279502,11.519915 66.799505,10.79992 66.399508,10.319924 65.999511,9.8399271 65.679513,9.4399301 65.359516,9.2799313 65.039518,9.039933 64.719521,8.8799342 64.399523,8.7999348 c -0.239998,0 -0.639995,-0.079999 -1.119992,-0.079999 h -2.399982 v 7.0399472 z m 2.159984,-8.7999346 h 4.399967 c 0.959993,0 1.759987,-0.079999 2.239984,-0.3199976 0.559996,-0.1599988 0.959993,-0.4799964 1.27999,-0.9599929 0.239999,-0.399997 0.399997,-0.8799935 0.399997,-1.3599899 0,-0.7999941 -0.239998,-1.3599899 -0.799994,-1.8399864 C 67.839497,1.9999852 66.959504,1.759987 65.839512,1.759987 h -4.959963 z"
     clip-path="url(#clipEmfPath1)"
     style="fill:#000000;fill-opacity:1;fill-rule:nonzero;stroke:none;stroke-linecap:round;stroke-linejoin:round;stroke-miterlimit:10"
     inkscape:connector-curvature="0"
     transform="translate(189.08044,484.21)" />
  <path
     id="path162"
     d="m 82.159391,12.079911 1.999986,0.239998 c -0.319998,1.199991 -0.879994,2.079984 -1.759987,2.71998 -0.799994,0.639995 -1.919986,0.959992 -3.279976,0.959992 -1.599988,0 -2.959978,-0.479996 -3.919971,-1.519988 -0.959993,-1.039993 -1.439989,-2.479982 -1.439989,-4.319968 0,-1.919986 0.479996,-3.4399748 1.439989,-4.4799671 0.959993,-1.0399923 2.239983,-1.5999881 3.839972,-1.5999881 1.519988,0 2.799979,0.5599958 3.759972,1.5199887 0.959993,1.0399923 1.439989,2.5599811 1.439989,4.3999674 0,0.1599991 0,0.3199981 0,0.5599961 h -8.479937 c 0,1.199991 0.399997,2.159984 1.039992,2.879978 0.639995,0.639996 1.439989,0.959993 2.399982,0.959993 0.639996,0 1.279991,-0.159998 1.759987,-0.559996 0.559996,-0.319997 0.879994,-0.959992 1.199991,-1.759986 z M 75.839438,8.9599336 h 6.319953 c -0.08,-0.9599929 -0.319997,-1.6799875 -0.719994,-2.159984 -0.559996,-0.7199946 -1.35999,-1.1199917 -2.399982,-1.1199917 -0.879994,0 -1.599989,0.3199977 -2.239984,0.8799935 -0.559996,0.5599959 -0.879993,1.3599899 -0.959993,2.3999822 z"
     clip-path="url(#clipEmfPath1)"
     style="fill:#000000;fill-opacity:1;fill-rule:nonzero;stroke:none;stroke-linecap:round;stroke-linejoin:round;stroke-miterlimit:10"
     inkscape:connector-curvature="0"
     transform="translate(189.08044,484.21)" />
  <path
     id="path164"
     d="m 93.999304,15.759883 v -1.439989 c -0.719995,1.119992 -1.759987,1.679987 -3.199977,1.679987 -0.879993,0 -1.759987,-0.239998 -2.479981,-0.719994 -0.799994,-0.559996 -1.35999,-1.199991 -1.759987,-2.159984 -0.479997,-0.879994 -0.639995,-1.919986 -0.639995,-3.039978 0,-1.1999908 0.159998,-2.1599837 0.559995,-3.1199766 0.399997,-0.9599928 0.959993,-1.6799875 1.679988,-2.159984 0.799994,-0.4799964 1.599988,-0.7199946 2.559981,-0.7199946 0.719995,0 1.279991,0.1599988 1.839986,0.4799964 0.559996,0.2399982 0.959993,0.6399953 1.279991,1.1199917 V 0 h 1.919986 v 15.759883 z m -6.079955,-5.679958 c 0,1.43999 0.319997,2.559981 0.879993,3.279976 0.639995,0.719995 1.35999,1.039992 2.159984,1.039992 0.879994,0 1.599988,-0.319997 2.159984,-1.039992 0.639995,-0.639995 0.879994,-1.759987 0.879994,-3.119977 0,-1.599988 -0.239999,-2.7199797 -0.879994,-3.4399744 -0.559996,-0.7199946 -1.35999,-1.1199917 -2.239983,-1.1199917 -0.799994,0 -1.519989,0.3199977 -2.159984,1.0399923 -0.559996,0.7199947 -0.799994,1.8399864 -0.799994,3.3599748 z"
     clip-path="url(#clipEmfPath1)"
     style="fill:#000000;fill-opacity:1;fill-rule:nonzero;stroke:none;stroke-linecap:round;stroke-linejoin:round;stroke-miterlimit:10"
     inkscape:connector-curvature="0"
     transform="translate(189.08044,484.21)" />
  <path
     id="path166"
     d="m 106.31921,15.759883 v -1.679987 c -0.87999,1.27999 -2.07998,1.919985 -3.59997,1.919985 -0.72,0 -1.35999,-0.159998 -1.91999,-0.399997 -0.55999,-0.239998 -1.039989,-0.559995 -1.279987,-0.959992 -0.319998,-0.399997 -0.479997,-0.879994 -0.559996,-1.43999 -0.08,-0.399997 -0.159999,-0.959993 -0.159999,-1.759987 V 4.319968 h 1.919982 v 6.319953 c 0,1.039992 0.08,1.679988 0.16,2.079985 0.08,0.479996 0.32,0.879993 0.72,1.199991 0.39999,0.239998 0.87999,0.399997 1.51999,0.399997 0.55999,0 1.11999,-0.159999 1.59998,-0.399997 0.48,-0.319998 0.88,-0.719995 1.04,-1.199991 0.23999,-0.559996 0.31999,-1.279991 0.31999,-2.239984 V 4.319968 h 1.99999 v 11.439915 z"
     clip-path="url(#clipEmfPath1)"
     style="fill:#000000;fill-opacity:1;fill-rule:nonzero;stroke:none;stroke-linecap:round;stroke-linejoin:round;stroke-miterlimit:10"
     inkscape:connector-curvature="0"
     transform="translate(189.08044,484.21)" />
  <path
     id="path168"
     d="m 118.55912,11.599914 1.83999,0.239998 c -0.16,1.279991 -0.72,2.319983 -1.59999,3.039978 -0.79999,0.719994 -1.83999,1.119991 -3.11998,1.119991 -1.51999,0 -2.79998,-0.479996 -3.75997,-1.519988 -0.95999,-1.039993 -1.43999,-2.479982 -1.43999,-4.399968 0,-1.1999908 0.24,-2.3199825 0.64,-3.199976 0.39999,-0.9599929 1.03999,-1.6799875 1.83998,-2.0799846 0.88,-0.4799964 1.75999,-0.7199946 2.71998,-0.7199946 1.27999,0 2.23999,0.3199976 3.03998,0.9599929 0.79999,0.6399952 1.27999,1.5199887 1.51999,2.6399804 l -1.83999,0.3199976 c -0.24,-0.799994 -0.55999,-1.3599899 -0.95999,-1.7599869 -0.48,-0.3999971 -1.03999,-0.5599959 -1.67999,-0.5599959 -0.95999,0 -1.75998,0.3199977 -2.39998,1.0399923 -0.56,0.7199947 -0.87999,1.8399864 -0.87999,3.2799757 0,1.5999881 0.31999,2.6399801 0.87999,3.3599751 0.56,0.719995 1.35999,1.039992 2.31998,1.039992 0.72,0 1.35999,-0.239998 1.83999,-0.719994 0.56,-0.399997 0.87999,-1.119992 1.03999,-2.079985 z"
     clip-path="url(#clipEmfPath1)"
     style="fill:#000000;fill-opacity:1;fill-rule:nonzero;stroke:none;stroke-linecap:round;stroke-linejoin:round;stroke-miterlimit:10"
     inkscape:connector-curvature="0"
     transform="translate(189.08044,484.21)" />
  <path
     id="path170"
     d="m 126.31906,13.999896 0.24,1.759987 c -0.55999,0.08 -1.03999,0.159999 -1.43999,0.159999 -0.71999,0 -1.27999,-0.159999 -1.59998,-0.319998 -0.4,-0.239998 -0.72,-0.559995 -0.88,-0.879993 -0.16,-0.399997 -0.24,-1.119992 -0.24,-2.319983 V 5.8399567 H 121.0391 V 4.319968 h 1.35999 V 1.5199887 l 1.91999,-1.19999107 V 4.319968 h 1.99998 v 1.5199887 h -1.99998 v 6.6399513 c 0,0.559995 0.08,0.959992 0.16,1.119991 0.08,0.159999 0.16,0.239998 0.32,0.319998 0.15999,0.159999 0.39999,0.159999 0.63999,0.159999 0.24,0 0.48,0 0.87999,-0.08 z"
     clip-path="url(#clipEmfPath1)"
     style="fill:#000000;fill-opacity:1;fill-rule:nonzero;stroke:none;stroke-linecap:round;stroke-linejoin:round;stroke-miterlimit:10"
     inkscape:connector-curvature="0"
     transform="translate(189.08044,484.21)" />
  <path
     id="path172"
     d="M 128.15905,2.2399834 V 0 h 1.99999 v 2.2399834 z m 0,13.5198996 V 4.319968 h 1.99999 v 11.439915 z"
     clip-path="url(#clipEmfPath1)"
     style="fill:#000000;fill-opacity:1;fill-rule:nonzero;stroke:none;stroke-linecap:round;stroke-linejoin:round;stroke-miterlimit:10"
     inkscape:connector-curvature="0"
     transform="translate(189.08044,484.21)" />
  <path
     id="path174"
     d="m 132.31902,10.079925 c 0,-2.1599837 0.64,-3.6799724 1.75999,-4.7199647 1.03999,-0.8799935 2.23998,-1.2799905 3.59997,-1.2799905 1.59999,0 2.87998,0.4799964 3.83997,1.5199887 1.03999,1.0399923 1.51999,2.4799816 1.51999,4.319968 0,1.4399895 -0.24,2.5599815 -0.63999,3.4399745 -0.48,0.799994 -1.12,1.519989 -1.91999,1.919986 -0.87999,0.479996 -1.75999,0.719994 -2.79998,0.719994 -1.59999,0 -2.87998,-0.479996 -3.83997,-1.519988 -0.95999,-1.039993 -1.51999,-2.479982 -1.51999,-4.399968 z m 1.99999,0 c 0,1.43999 0.31999,2.559981 0.95999,3.279976 0.63999,0.719995 1.43999,1.039992 2.39998,1.039992 0.95999,0 1.75999,-0.319997 2.39998,-1.039992 0.64,-0.799994 0.96,-1.919986 0.96,-3.3599751 0,-1.4399893 -0.32,-2.4799816 -0.96,-3.1999763 -0.63999,-0.7199946 -1.43999,-1.1199917 -2.39998,-1.1199917 -0.95999,0 -1.75999,0.3999971 -2.39998,1.1199917 -0.64,0.7199947 -0.95999,1.759987 -0.95999,3.2799754 z"
     clip-path="url(#clipEmfPath1)"
     style="fill:#000000;fill-opacity:1;fill-rule:nonzero;stroke:none;stroke-linecap:round;stroke-linejoin:round;stroke-miterlimit:10"
     inkscape:connector-curvature="0"
     transform="translate(189.08044,484.21)" />
  <path
     id="path176"
     d="M 145.27892,15.759883 V 4.319968 h 1.75999 v 1.6799876 c 0.87999,-1.2799906 2.07999,-1.9199858 3.59997,-1.9199858 0.72,0 1.35999,0.1599988 1.91999,0.399997 0.56,0.2399982 1.03999,0.5599959 1.27999,0.9599929 0.32,0.399997 0.48,0.8799935 0.64,1.4399893 0.08,0.3199977 0.08,0.9599929 0.08,1.8399864 v 7.0399476 h -1.91999 V 8.7999348 c 0,-0.7999941 -0.08,-1.3599899 -0.24,-1.7599869 -0.16,-0.3999971 -0.4,-0.7199947 -0.79999,-0.9599929 -0.4,-0.2399983 -0.8,-0.3199977 -1.35999,-0.3199977 -0.8,0 -1.51999,0.2399983 -2.07999,0.7999941 -0.63999,0.4799965 -0.87999,1.5199887 -0.87999,2.9599781 v 6.2399535 z"
     clip-path="url(#clipEmfPath1)"
     style="fill:#000000;fill-opacity:1;fill-rule:nonzero;stroke:none;stroke-linecap:round;stroke-linejoin:round;stroke-miterlimit:10"
     inkscape:connector-curvature="0"
     transform="translate(189.08044,484.21)" />
  <path
     id="path178"
     d="m 156.79884,12.319909 1.91998,-0.239998 c 0.08,0.719994 0.4,1.27999 0.88,1.759986 0.47999,0.399998 1.19999,0.559996 2.07998,0.559996 0.88,0 1.51999,-0.159998 1.91999,-0.559996 0.47999,-0.319997 0.63999,-0.719994 0.63999,-1.199991 0,-0.479996 -0.16,-0.799994 -0.55999,-1.039992 -0.24,-0.239998 -0.88,-0.399997 -1.99999,-0.719995 -1.35999,-0.319997 -2.39998,-0.639995 -2.87998,-0.8799931 -0.55999,-0.2399982 -0.95999,-0.6399952 -1.27999,-1.1199917 -0.31999,-0.4799964 -0.39999,-0.9599929 -0.39999,-1.5199887 0,-0.4799965 0.08,-0.9599929 0.31999,-1.3599899 0.24,-0.4799965 0.56,-0.7999941 0.96,-1.1199917 0.31999,-0.2399983 0.71999,-0.3999971 1.19999,-0.5599959 0.55999,-0.1599988 1.11999,-0.2399982 1.67999,-0.2399982 0.87999,0 1.67998,0.1599988 2.39998,0.399997 0.63999,0.2399982 1.11999,0.5599959 1.43999,1.0399923 0.31999,0.399997 0.55999,1.0399923 0.71999,1.759987 l -1.91998,0.2399982 c -0.08,-0.5599959 -0.32,-1.0399923 -0.72,-1.3599899 -0.4,-0.3199977 -1.03999,-0.4799965 -1.75999,-0.4799965 -0.87999,0 -1.51998,0.1599988 -1.91998,0.3999971 -0.4,0.3199976 -0.56,0.6399952 -0.56,1.0399923 0,0.2399982 0.08,0.4799964 0.24,0.7199946 0.16,0.1599988 0.4,0.3199977 0.72,0.4799965 0.23999,0.079999 0.79999,0.2399982 1.75998,0.4799964 1.35999,0.3999971 2.31999,0.7199947 2.79998,0.9599929 0.56,0.2399982 0.95999,0.5599963 1.27999,0.9599933 0.32,0.479996 0.48,1.039992 0.48,1.679987 0,0.639995 -0.16,1.279991 -0.56,1.839987 -0.39999,0.559995 -0.87999,0.959992 -1.59999,1.27999 -0.71999,0.319998 -1.51998,0.479996 -2.39998,0.479996 -1.51999,0 -2.63998,-0.319997 -3.43997,-0.879993 -0.72,-0.639995 -1.27999,-1.599988 -1.43999,-2.799979 z"
     clip-path="url(#clipEmfPath1)"
     style="fill:#000000;fill-opacity:1;fill-rule:nonzero;stroke:none;stroke-linecap:round;stroke-linejoin:round;stroke-miterlimit:10"
     inkscape:connector-curvature="0"
     transform="translate(189.08044,484.21)" />
</svg>
